<?xml version="1.0" standalone="no"?><!-- Generator: Gravit.io --><svg xmlns="http://www.w3.org/2000/svg" xmlns:xlink="http://www.w3.org/1999/xlink" style="isolation:isolate" viewBox="-0.014 0 64.029 64" width="64.029" height="64"><path d=" M 63.448 30.919 L 52.888 23.88 C 52.647 23.72 52.447 23.23 52.502 22.945 L 54.988 10.504 C 55.073 10.083 54.944 9.648 54.642 9.342 C 54.337 9.041 53.902 8.912 53.482 8.996 L 41.043 11.485 C 40.757 11.536 40.267 11.34 40.108 11.1 L 33.066 0.536 C 32.59 -0.179 31.41 -0.179 30.934 0.536 L 23.896 11.096 C 23.736 11.337 23.24 11.537 22.961 11.482 L 10.519 8.997 C 10.098 8.912 9.663 9.041 9.358 9.343 C 9.057 9.649 8.927 10.083 9.012 10.504 L 11.499 22.944 C 11.554 23.23 11.354 23.72 11.115 23.879 L 0.553 30.92 C 0.198 31.159 -0.014 31.558 -0.014 31.986 C -0.014 32.413 0.198 32.813 0.553 33.051 L 11.113 40.09 C 11.354 40.25 11.554 40.74 11.499 41.025 L 9.013 53.467 C 8.927 53.888 9.058 54.322 9.359 54.628 C 9.664 54.928 10.098 55.064 10.519 54.974 L 22.96 52.487 C 23.235 52.432 23.736 52.632 23.895 52.871 L 30.934 63.433 C 31.173 63.787 31.573 64 32 64 C 32.427 64 32.827 63.787 33.066 63.433 L 40.104 52.872 C 40.264 52.632 40.76 52.432 41.039 52.487 L 53.481 54.973 C 53.902 55.06 54.338 54.93 54.642 54.627 C 54.943 54.321 55.072 53.887 54.988 53.467 L 52.501 41.026 C 52.446 40.74 52.646 40.25 52.885 40.091 L 63.447 33.051 C 63.802 32.813 64.014 32.413 64.014 31.986 C 64.014 31.558 63.802 31.159 63.447 30.92 L 63.448 30.919 Z  M 32.001 47.353 C 23.512 47.353 16.633 40.474 16.633 31.984 C 16.633 23.495 23.512 16.616 32.001 16.616 C 40.491 16.616 47.369 23.495 47.369 31.984 C 47.369 40.474 40.491 47.353 32.001 47.353 Z " fill="rgb(0,0,0)"/></svg>