<?xml version="1.0" standalone="no"?><!-- Generator: Gravit.io --><svg xmlns="http://www.w3.org/2000/svg" xmlns:xlink="http://www.w3.org/1999/xlink" style="isolation:isolate" viewBox="5.372 24 115.065 79.107" width="115.065" height="79.107"><path d=" M 98.862 103.107 L 26.947 103.107 C 15.066 103.107 5.372 93.413 5.372 81.532 C 5.372 72.234 11.384 64.028 20.007 61.108 C 21.186 53.054 27.342 46.898 35.124 45.769 C 38.33 33.023 49.761 24.066 62.904 24 C 73.44 24 82.969 29.703 88.017 38.743 C 101.674 36.197 113.245 46.869 113.245 59.958 C 113.245 61.612 113.051 63.302 112.627 64.956 C 117.578 69.036 120.443 75.117 120.437 81.532 C 120.437 93.413 110.743 103.107 98.862 103.107 Z  M 37.899 49.199 L 37.367 52.737 C 31.779 52.766 26.947 57.599 26.947 63.553 L 27.033 66.588 L 24.085 67.43 C 17.389 68.809 12.58 74.696 12.564 81.532 C 12.564 89.457 19.022 95.915 26.947 95.915 L 98.862 95.915 C 106.787 95.915 113.245 89.457 113.245 81.532 C 113.242 76.593 110.692 72.004 106.5 69.393 L 104.004 67.825 L 105.069 65.071 C 105.704 63.44 106.038 61.708 106.054 59.958 C 106.054 52.033 99.596 45.575 91.671 45.575 C 90.297 45.575 88.83 45.826 87.205 46.366 L 84.055 47.401 L 82.76 44.366 C 79.401 36.375 71.573 31.181 62.904 31.192 C 52.218 31.251 43.185 39.124 41.668 49.703 L 41.215 52.795 L 38.101 52.795 L 37.899 49.199 Z " fill="rgb(255,255,255)"/></svg>