<?xml version="1.0" standalone="no"?><!-- Generator: Gravit.io --><svg xmlns="http://www.w3.org/2000/svg" xmlns:xlink="http://www.w3.org/1999/xlink" style="isolation:isolate" viewBox="0 -0.5 121.009 131.815" width="121.009" height="131.815"><g id="Group"><path d=" M 102.715 36.867 C 102.734 36.42 102.752 35.983 102.752 35.558 C 102.752 18.708 89.033 5 72.183 5 C 60.543 5 49.912 11.726 44.811 22.041 C 42.15 20.282 39.029 19.348 35.84 19.354 C 27.279 19.363 20.182 25.99 19.589 34.531 C 10.801 37.731 4.8 46.166 4.8 55.634 C 4.8 68.015 14.887 78.102 27.28 78.102 L 100.319 78.102 C 111.731 78.102 121.009 68.824 121.009 57.412 C 121.009 46.816 113.002 38.057 102.715 36.867 Z " fill="rgb(255,255,255)"/><line x1="0" y1="0" x2="0" y2="0" vector-effect="non-scaling-stroke" stroke-width="1" stroke="rgb(0,0,0)" stroke-linejoin="miter" stroke-linecap="square" stroke-miterlimit="3"/><line x1="39.983" y1="82.585" x2="57.983" y2="93.122" vector-effect="non-scaling-stroke" stroke-width="1.082" stroke="rgb(255,255,0)" stroke-linejoin="miter" stroke-linecap="square" stroke-miterlimit="3"/><line x1="58.483" y1="110.683" x2="40.483" y2="121.22" vector-effect="non-scaling-stroke" stroke-width="1.082" stroke="rgb(255,255,0)" stroke-linejoin="miter" stroke-linecap="square" stroke-miterlimit="3"/><line x1="57.983" y1="93.122" x2="40.483" y2="101.317" vector-effect="non-scaling-stroke" stroke-width="1.082" stroke="rgb(255,255,0)" stroke-linejoin="miter" stroke-linecap="square" stroke-miterlimit="3"/><line x1="40.483" y1="121.22" x2="58.483" y2="130.585" vector-effect="non-scaling-stroke" stroke-width="1.082" stroke="rgb(255,255,0)" stroke-linejoin="miter" stroke-linecap="square" stroke-miterlimit="3"/><line x1="39.983" y1="101.317" x2="58.483" y2="110.683" vector-effect="non-scaling-stroke" stroke-width="1.082" stroke="rgb(255,255,0)" stroke-linejoin="miter" stroke-linecap="square" stroke-miterlimit="3"/><line x1="58.483" y1="110.683" x2="40.483" y2="121.22" vector-effect="non-scaling-stroke" stroke-width="1.082" stroke="rgb(255,255,0)" stroke-linejoin="miter" stroke-linecap="square" stroke-miterlimit="3"/><line x1="39.983" y1="101.317" x2="58.483" y2="110.683" vector-effect="non-scaling-stroke" stroke-width="1.082" stroke="rgb(255,255,0)" stroke-linejoin="miter" stroke-linecap="square" stroke-miterlimit="3"/><line x1="39.983" y1="82.585" x2="57.983" y2="93.122" vector-effect="non-scaling-stroke" stroke-width="1.082" stroke="rgb(255,255,0)" stroke-linejoin="miter" stroke-linecap="square" stroke-miterlimit="3"/><line x1="67.326" y1="82" x2="85.326" y2="92.537" vector-effect="non-scaling-stroke" stroke-width="1.082" stroke="rgb(255,255,0)" stroke-linejoin="miter" stroke-linecap="square" stroke-miterlimit="3"/><line x1="58.483" y1="110.683" x2="40.483" y2="121.22" vector-effect="non-scaling-stroke" stroke-width="1.082" stroke="rgb(255,255,0)" stroke-linejoin="miter" stroke-linecap="square" stroke-miterlimit="3"/><line x1="85.826" y1="110.098" x2="67.826" y2="120.634" vector-effect="non-scaling-stroke" stroke-width="1.082" stroke="rgb(255,255,0)" stroke-linejoin="miter" stroke-linecap="square" stroke-miterlimit="3"/><line x1="57.983" y1="93.122" x2="40.483" y2="101.317" vector-effect="non-scaling-stroke" stroke-width="1.082" stroke="rgb(255,255,0)" stroke-linejoin="miter" stroke-linecap="square" stroke-miterlimit="3"/><line x1="85.326" y1="92.537" x2="67.826" y2="100.732" vector-effect="non-scaling-stroke" stroke-width="1.082" stroke="rgb(255,255,0)" stroke-linejoin="miter" stroke-linecap="square" stroke-miterlimit="3"/><line x1="40.483" y1="121.22" x2="58.483" y2="130.585" vector-effect="non-scaling-stroke" stroke-width="1.082" stroke="rgb(255,255,0)" stroke-linejoin="miter" stroke-linecap="square" stroke-miterlimit="3"/><line x1="67.826" y1="120.634" x2="85.826" y2="130" vector-effect="non-scaling-stroke" stroke-width="1.082" stroke="rgb(255,255,0)" stroke-linejoin="miter" stroke-linecap="square" stroke-miterlimit="3"/><line x1="39.983" y1="101.317" x2="58.483" y2="110.683" vector-effect="non-scaling-stroke" stroke-width="1.082" stroke="rgb(255,255,0)" stroke-linejoin="miter" stroke-linecap="square" stroke-miterlimit="3"/><line x1="67.326" y1="100.732" x2="85.826" y2="110.098" vector-effect="non-scaling-stroke" stroke-width="1.082" stroke="rgb(255,255,0)" stroke-linejoin="miter" stroke-linecap="square" stroke-miterlimit="3"/><line x1="58.483" y1="110.683" x2="40.483" y2="121.22" vector-effect="non-scaling-stroke" stroke-width="1.082" stroke="rgb(255,255,0)" stroke-linejoin="miter" stroke-linecap="square" stroke-miterlimit="3"/><line x1="85.826" y1="110.098" x2="67.826" y2="120.634" vector-effect="non-scaling-stroke" stroke-width="1.082" stroke="rgb(255,255,0)" stroke-linejoin="miter" stroke-linecap="square" stroke-miterlimit="3"/><line x1="39.983" y1="101.317" x2="58.483" y2="110.683" vector-effect="non-scaling-stroke" stroke-width="1.082" stroke="rgb(255,255,0)" stroke-linejoin="miter" stroke-linecap="square" stroke-miterlimit="3"/><line x1="67.326" y1="100.732" x2="85.826" y2="110.098" vector-effect="non-scaling-stroke" stroke-width="1.082" stroke="rgb(255,255,0)" stroke-linejoin="miter" stroke-linecap="square" stroke-miterlimit="3"/></g></svg>