<?xml version="1.0" standalone="no"?><!-- Generator: Gravit.io --><svg xmlns="http://www.w3.org/2000/svg" xmlns:xlink="http://www.w3.org/1999/xlink" style="isolation:isolate" viewBox="239.76 38.717 125.809 144.598" width="125.809" height="144.598"><g id="Cloud"><line x1="266.329" y1="141" x2="248.329" y2="180" vector-effect="non-scaling-stroke" stroke-width="5" stroke="rgb(255,255,255)" stroke-linejoin="miter" stroke-linecap="square" stroke-miterlimit="3"/><line x1="296.664" y1="141" x2="278.664" y2="180" vector-effect="non-scaling-stroke" stroke-width="5" stroke="rgb(255,255,255)" stroke-linejoin="miter" stroke-linecap="square" stroke-miterlimit="3"/><line x1="327" y1="141" x2="309" y2="180" vector-effect="non-scaling-stroke" stroke-width="5" stroke="rgb(255,255,255)" stroke-linejoin="miter" stroke-linecap="square" stroke-miterlimit="3"/><path d=" M 289.165 38.717 C 273.671 38.717 261.166 50.397 259.094 65.259 C 248.087 68.194 239.76 77.822 239.76 89.654 C 239.76 102.773 249.987 113.319 262.776 114.816 C 266.346 124.788 275.512 132 286.711 132 C 294.384 132 300.674 128.107 305.431 122.794 C 309.339 125.824 313.925 128.013 319.237 128.013 C 329.346 128.013 337.648 121.277 340.717 112.204 L 341.178 112.204 C 354.562 112.204 365.569 101.315 365.569 87.966 C 365.569 76.595 357.385 67.37 346.701 64.797 C 343.265 55.346 334.481 48.384 323.837 48.384 C 319.851 48.384 316.301 49.612 312.948 51.296 C 307.307 44.015 299.083 38.717 289.165 38.717 Z  M 289.165 48.536 C 297.257 48.536 304.218 53.043 307.729 59.583 L 310.336 64.645 L 314.941 61.115 C 317.512 59.202 320.637 58.18 323.842 58.203 C 331.049 58.203 336.975 63.152 338.414 69.707 L 339.185 73.242 L 342.71 73.546 C 350.118 74.285 355.759 80.521 355.755 87.966 C 355.755 95.944 349.308 102.39 341.173 102.39 C 340.181 102.39 339.199 102.272 338.262 102.081 L 332.891 101.006 L 332.434 106.377 C 331.82 112.975 326.199 118.194 319.237 118.194 C 315.015 118.194 311.372 116.274 308.956 113.284 L 304.356 107.604 L 300.826 114.05 C 298.101 118.94 292.828 122.181 286.711 122.181 C 279.112 122.246 272.54 116.899 271.059 109.445 L 270.293 105.459 L 266.154 105.459 C 265.884 105.459 265.786 105.591 265.693 105.611 C 256.737 105.611 249.579 98.443 249.579 89.654 C 249.579 81.485 255.814 74.886 263.851 74.003 L 268.147 73.546 L 268.147 69.098 C 268.221 57.678 277.544 48.536 289.165 48.536 Z " fill="rgb(255,255,255)"/></g></svg>