<?xml version="1.0" standalone="no"?><!-- Generator: Gravit.io --><svg xmlns="http://www.w3.org/2000/svg" xmlns:xlink="http://www.w3.org/1999/xlink" style="isolation:isolate" viewBox="3.78 31 113.449 69.815" width="113.449" height="69.815"><path d=" M 3.78 31 L 3.78 39.727 C 5.503 39.727 6.389 40.255 7.598 41.363 C 8.806 42.471 9.998 44.226 11.416 46.407 C 12.83 48.589 14.4 51.198 16.735 53.363 C 19.367 55.805 22.822 57.168 26.413 57.181 C 30.042 57.152 33.535 55.793 36.231 53.363 C 38.617 51.216 40.223 48.742 41.685 46.543 C 43.151 44.348 44.434 42.354 45.643 41.228 C 46.851 40.102 47.672 39.727 49.186 39.727 C 50.909 39.727 51.66 40.255 52.868 41.363 C 54.077 42.471 55.408 44.226 56.822 46.407 C 58.236 48.589 59.806 51.198 62.141 53.363 C 64.774 55.806 68.231 57.169 71.823 57.181 C 75.777 57.181 79.167 55.527 81.501 53.363 C 83.84 51.198 85.407 48.589 86.825 46.407 C 88.234 44.226 89.565 42.471 90.774 41.363 C 91.987 40.255 92.872 39.727 94.592 39.727 C 96.315 39.727 97.066 40.255 98.274 41.363 C 99.487 42.471 100.814 44.226 102.232 46.407 C 103.646 48.589 105.212 51.198 107.547 53.363 C 110.18 55.806 113.637 57.169 117.229 57.181 L 117.229 48.454 C 115.506 48.454 114.62 47.926 113.411 46.817 C 112.203 45.709 111.011 43.955 109.593 41.773 C 108.179 39.592 106.609 36.982 104.274 34.818 C 101.642 32.375 98.187 31.012 94.596 31 C 90.638 31 87.113 32.654 84.778 34.818 C 82.44 36.982 81.008 39.592 79.595 41.773 C 78.181 43.955 76.85 45.709 75.641 46.817 C 74.428 47.926 73.547 48.454 71.823 48.454 C 70.1 48.454 69.349 47.926 68.141 46.817 C 66.932 45.709 65.601 43.955 64.187 41.773 C 62.773 39.592 61.203 36.982 58.868 34.818 C 56.235 32.374 52.778 31.011 49.186 31 C 45.32 31 41.925 32.806 39.643 34.953 C 37.356 37.1 35.908 39.469 34.459 41.634 C 33.01 43.802 31.632 45.692 30.371 46.817 C 29.105 47.943 28.137 48.454 26.417 48.454 C 24.694 48.454 23.943 47.926 22.735 46.817 C 21.522 45.709 20.195 43.955 18.777 41.773 C 17.363 39.592 15.797 36.982 13.462 34.818 C 10.829 32.374 7.372 31.011 3.78 31 Z  M 3.78 74.634 L 3.78 83.361 C 5.503 83.361 6.389 83.889 7.598 84.998 C 8.806 86.106 9.998 87.86 11.416 90.042 C 12.83 92.223 14.4 94.833 16.735 96.997 C 19.367 99.44 22.822 100.803 26.413 100.815 C 30.042 100.786 33.535 99.428 36.231 96.997 C 38.617 94.85 40.223 92.376 41.685 90.177 C 43.151 87.982 44.434 85.988 45.643 84.862 C 46.851 83.737 47.672 83.361 49.186 83.361 C 50.909 83.361 51.66 83.889 52.868 84.998 C 54.077 86.106 55.408 87.86 56.822 90.042 C 58.236 92.223 59.806 94.833 62.141 96.997 C 64.774 99.441 68.231 100.804 71.823 100.815 C 75.777 100.815 79.167 99.161 81.501 96.997 C 83.84 94.833 85.407 92.223 86.825 90.042 C 88.234 87.86 89.565 86.106 90.774 84.998 C 91.987 83.889 92.872 83.361 94.592 83.361 C 96.315 83.361 97.066 83.889 98.274 84.998 C 99.487 86.106 100.814 87.86 102.232 90.042 C 103.646 92.223 105.212 94.833 107.547 96.997 C 110.18 99.441 113.637 100.804 117.229 100.815 L 117.229 92.088 C 115.506 92.088 114.62 91.56 113.411 90.452 C 112.203 89.344 111.011 87.589 109.593 85.408 C 108.179 83.226 106.609 80.617 104.274 78.452 C 101.642 76.01 98.187 74.647 94.596 74.634 C 90.638 74.634 87.113 76.288 84.778 78.452 C 82.44 80.617 81.008 83.226 79.595 85.408 C 78.181 87.589 76.85 89.344 75.641 90.452 C 74.428 91.56 73.547 92.088 71.823 92.088 C 70.1 92.088 69.349 91.56 68.141 90.452 C 66.932 89.344 65.601 87.589 64.187 85.408 C 62.773 83.226 61.203 80.617 58.868 78.452 C 56.235 76.009 52.778 74.646 49.186 74.634 C 45.32 74.634 41.925 76.441 39.643 78.588 C 37.356 80.734 35.908 83.104 34.459 85.272 C 33.01 87.437 31.632 89.33 30.371 90.452 C 29.105 91.578 28.137 92.088 26.417 92.088 C 24.694 92.088 23.943 91.56 22.735 90.452 C 21.522 89.344 20.195 87.589 18.777 85.408 C 17.363 83.226 15.797 80.617 13.462 78.452 C 10.829 76.009 7.372 74.646 3.78 74.634 Z " fill="rgb(255,255,255)"/></svg>