<?xml version="1.0" standalone="no"?><!-- Generator: Gravit.io --><svg xmlns="http://www.w3.org/2000/svg" xmlns:xlink="http://www.w3.org/1999/xlink" style="isolation:isolate" viewBox="8.923 0 106.178 144.315" width="106.178" height="144.315"><g id="Group"><line x1="50.621" y1="102" x2="32.621" y2="141" vector-effect="non-scaling-stroke" stroke-width="5" stroke="rgb(255,255,255)" stroke-opacity="100" stroke-linejoin="miter" stroke-linecap="square" stroke-miterlimit="3"/><line x1="80.956" y1="102" x2="62.956" y2="141" vector-effect="non-scaling-stroke" stroke-width="5" stroke="rgb(255,255,255)" stroke-opacity="100" stroke-linejoin="miter" stroke-linecap="square" stroke-miterlimit="3"/><path d=" M 33.676 0 C 25.913 0 19.648 5.852 18.61 13.298 C 13.095 14.769 8.923 19.592 8.923 25.521 C 8.923 32.093 14.047 37.377 20.455 38.127 C 22.243 43.123 26.835 46.737 32.446 46.737 C 36.291 46.737 39.442 44.786 41.826 42.124 C 43.784 43.642 46.081 44.739 48.743 44.739 C 53.807 44.739 57.967 41.364 59.504 36.819 L 59.735 36.819 C 66.441 36.819 71.956 31.363 71.956 24.674 C 71.956 18.978 67.855 14.356 62.503 13.067 C 60.781 8.331 56.38 4.843 51.047 4.843 C 49.05 4.843 47.272 5.458 45.592 6.302 C 42.765 2.654 38.645 0 33.676 0 Z  M 33.676 4.92 C 37.73 4.92 41.218 7.178 42.977 10.454 L 44.283 12.99 L 46.59 11.222 C 47.878 10.263 49.444 9.751 51.05 9.763 C 54.661 9.763 57.63 12.243 58.351 15.526 L 58.737 17.297 L 60.503 17.45 C 64.215 17.82 67.041 20.944 67.039 24.674 C 67.039 28.672 63.809 31.901 59.733 31.901 C 59.236 31.901 58.744 31.842 58.274 31.746 L 55.583 31.208 L 55.355 33.899 C 55.047 37.205 52.231 39.82 48.743 39.82 C 46.627 39.82 44.802 38.858 43.592 37.36 L 41.287 34.514 L 39.518 37.744 C 38.153 40.193 35.511 41.817 32.446 41.817 C 28.639 41.85 25.346 39.171 24.604 35.436 L 24.221 33.439 L 22.147 33.439 C 22.012 33.439 21.962 33.505 21.916 33.515 C 17.429 33.515 13.843 29.924 13.843 25.521 C 13.843 21.428 16.967 18.122 20.993 17.679 L 23.146 17.45 L 23.146 15.221 C 23.183 9.5 27.854 4.92 33.676 4.92 Z " fill="rgb(255,255,255)"/><path d=" M 83.433 46.737 C 77.011 46.737 71.828 51.578 70.969 57.737 C 66.407 58.954 62.956 62.945 62.956 67.849 C 62.956 73.286 67.195 77.657 72.496 78.278 C 73.975 82.411 77.774 85.4 82.416 85.4 C 85.596 85.4 88.203 83.786 90.175 81.585 C 91.795 82.84 93.695 83.748 95.897 83.748 C 100.087 83.748 103.528 80.956 104.8 77.195 L 104.991 77.195 C 110.538 77.195 115.101 72.682 115.101 67.149 C 115.101 62.436 111.709 58.612 107.281 57.546 C 105.856 53.629 102.216 50.743 97.804 50.743 C 96.152 50.743 94.68 51.252 93.29 51.95 C 90.952 48.932 87.544 46.737 83.433 46.737 Z  M 83.433 50.806 C 86.787 50.806 89.672 52.675 91.127 55.385 L 92.208 57.483 L 94.117 56.02 C 95.182 55.227 96.478 54.803 97.806 54.813 C 100.793 54.813 103.249 56.864 103.846 59.581 L 104.165 61.046 L 105.626 61.172 C 108.697 61.479 111.035 64.063 111.033 67.149 C 111.033 70.456 108.361 73.128 104.989 73.128 C 104.578 73.128 104.171 73.079 103.782 72.999 L 101.556 72.554 L 101.367 74.78 C 101.113 77.515 98.783 79.678 95.897 79.678 C 94.147 79.678 92.637 78.882 91.636 77.643 L 89.729 75.289 L 88.266 77.96 C 87.137 79.987 84.951 81.33 82.416 81.33 C 79.266 81.357 76.542 79.141 75.928 76.052 L 75.611 74.399 L 73.896 74.399 C 73.784 74.399 73.743 74.454 73.704 74.462 C 69.993 74.462 67.026 71.491 67.026 67.849 C 67.026 64.463 69.61 61.728 72.941 61.362 L 74.722 61.172 L 74.722 59.329 C 74.752 54.595 78.617 50.806 83.433 50.806 Z " fill="rgb(255,255,255)"/><path d=" M 25.948 62.543 C 22.152 62.543 19.088 65.405 18.58 69.047 C 15.883 69.766 13.843 72.125 13.843 75.024 C 13.843 78.239 16.348 80.823 19.482 81.19 C 20.357 83.633 22.603 85.4 25.347 85.4 C 27.227 85.4 28.768 84.446 29.934 83.145 C 30.891 83.887 32.015 84.423 33.317 84.423 C 35.794 84.423 37.828 82.773 38.58 80.55 L 38.693 80.55 C 41.972 80.55 44.669 77.881 44.669 74.61 C 44.669 71.824 42.664 69.564 40.046 68.934 C 39.204 66.618 37.052 64.912 34.444 64.912 C 33.467 64.912 32.597 65.213 31.776 65.625 C 30.393 63.841 28.378 62.543 25.948 62.543 Z  M 25.948 64.949 C 27.931 64.949 29.637 66.054 30.497 67.656 L 31.136 68.896 L 32.264 68.031 C 32.894 67.563 33.66 67.312 34.445 67.318 C 36.211 67.318 37.663 68.531 38.015 70.137 L 38.204 71.003 L 39.068 71.077 C 40.883 71.258 42.265 72.786 42.264 74.61 C 42.264 76.565 40.685 78.145 38.692 78.145 C 38.449 78.145 38.208 78.116 37.978 78.069 L 36.662 77.806 L 36.55 79.122 C 36.4 80.739 35.022 82.017 33.317 82.017 C 32.282 82.017 31.389 81.547 30.798 80.814 L 29.67 79.422 L 28.805 81.002 C 28.138 82.2 26.846 82.994 25.347 82.994 C 23.485 83.01 21.874 81.7 21.512 79.874 L 21.324 78.897 L 20.31 78.897 C 20.244 78.897 20.22 78.929 20.197 78.934 C 18.003 78.934 16.249 77.178 16.249 75.024 C 16.249 73.023 17.776 71.406 19.746 71.189 L 20.798 71.077 L 20.798 69.987 C 20.816 67.189 23.101 64.949 25.948 64.949 Z " fill="rgb(255,255,255)"/></g></svg>