<?xml version="1.0" standalone="no"?><!-- Generator: Gravit.io --><svg xmlns="http://www.w3.org/2000/svg" xmlns:xlink="http://www.w3.org/1999/xlink" style="isolation:isolate" viewBox="5.364 7 115.08 130.598" width="115.08" height="130.598"><path d=" M 62.237 7.023 C 62.022 7.063 61.806 7.123 61.611 7.178 C 59.279 7.705 57.641 9.801 57.695 12.191 L 57.695 25.041 L 51.273 18.609 C 50.052 17.357 48.272 16.826 46.565 17.205 C 44.697 17.539 43.181 18.906 42.655 20.729 C 42.128 22.569 42.675 24.53 44.064 25.823 L 57.695 39.455 L 57.695 63.579 L 36.543 51.517 L 31.69 33.027 C 31.195 30.805 29.263 29.196 26.988 29.112 C 26.675 29.072 26.358 29.072 26.045 29.112 C 24.599 29.321 23.316 30.153 22.533 31.387 C 21.751 32.622 21.547 34.136 21.974 35.534 L 24.326 44.468 L 13.045 37.885 C 12.055 37.302 10.892 37.08 9.756 37.259 C 7.585 37.534 5.842 39.183 5.445 41.335 C 5.056 43.483 6.102 45.637 8.032 46.659 L 19.157 53.081 L 10.534 55.432 C 7.85 56.125 6.237 58.861 6.929 61.544 C 7.621 64.227 10.357 65.841 13.04 65.149 L 31.53 60.135 L 52.531 72.353 L 31.525 84.576 L 13.04 79.562 C 12.379 79.372 11.687 79.318 11.005 79.402 C 8.577 79.694 6.718 81.702 6.613 84.145 C 6.495 86.581 8.151 88.748 10.534 89.273 L 19.152 91.625 L 8.022 98.047 C 5.595 99.436 4.753 102.509 6.147 104.94 C 7.535 107.367 10.609 108.209 13.04 106.82 L 24.321 100.238 L 21.969 109.172 C 21.277 111.855 22.891 114.591 25.574 115.283 C 28.257 115.975 30.993 114.361 31.685 111.678 L 36.538 93.189 L 57.695 81.126 L 57.695 105.256 L 44.064 118.878 C 43.104 119.832 42.565 121.129 42.565 122.482 C 42.565 123.836 43.104 125.133 44.064 126.087 C 46.064 128.082 49.278 128.082 51.273 126.087 L 57.695 119.665 L 57.695 132.514 C 57.675 134.319 58.618 135.999 60.182 136.921 C 61.751 137.824 63.666 137.824 65.235 136.921 C 66.8 135.999 67.742 134.314 67.722 132.514 L 67.722 119.665 L 74.144 126.092 C 76.145 128.087 79.358 128.087 81.354 126.092 C 82.313 125.138 82.853 123.841 82.853 122.487 C 82.853 121.134 82.313 119.837 81.354 118.883 L 67.722 105.256 L 67.722 81.126 L 88.874 93.189 L 93.727 111.678 C 94.419 114.361 97.155 115.975 99.838 115.283 C 102.521 114.591 104.135 111.855 103.443 109.172 L 101.092 100.238 L 112.372 106.82 C 114.803 108.209 117.877 107.372 119.265 104.94 C 119.933 103.777 120.109 102.397 119.757 101.103 C 119.404 99.81 118.551 98.71 117.385 98.047 L 106.265 91.625 L 114.879 89.273 C 117.641 88.882 119.581 86.315 119.19 83.558 C 118.797 80.79 116.239 78.862 113.47 79.246 C 113.205 79.277 112.944 79.329 112.688 79.402 C 112.579 79.446 112.473 79.498 112.372 79.557 L 93.887 84.571 L 72.886 72.353 L 93.882 60.13 L 112.367 65.144 C 115.048 65.836 117.784 64.223 118.476 61.541 C 119.168 58.86 117.555 56.125 114.874 55.432 L 106.26 53.081 L 117.38 46.659 C 119.731 45.667 120.961 43.067 120.239 40.62 C 119.516 38.173 117.07 36.659 114.558 37.103 C 114.4 37.146 114.244 37.198 114.091 37.259 C 113.482 37.358 112.897 37.57 112.367 37.885 L 101.087 44.468 L 103.438 35.534 C 103.889 33.99 103.573 32.305 102.576 31.032 C 101.579 29.765 100.036 29.051 98.424 29.112 L 97.953 29.112 C 95.858 29.392 94.166 30.96 93.727 33.027 L 88.864 51.517 L 67.722 63.579 L 67.722 39.45 L 81.354 25.823 C 82.313 24.869 82.853 23.571 82.853 22.218 C 82.853 20.865 82.313 19.568 81.354 18.614 C 80.399 17.654 79.102 17.115 77.749 17.115 C 76.396 17.115 75.098 17.654 74.144 18.614 L 67.722 25.036 L 67.722 12.191 C 67.773 10.749 67.2 9.355 66.15 8.365 C 65.1 7.375 63.674 6.886 62.237 7.023 Z " fill="rgb(255,255,255)"/></svg>