<?xml version="1.0" standalone="no"?><!-- Generator: Gravit.io --><svg xmlns="http://www.w3.org/2000/svg" xmlns:xlink="http://www.w3.org/1999/xlink" style="isolation:isolate" viewBox="0 0 121.009 131.815" width="121.009" height="131.815"><defs><clipPath id="_clipPath_aWq0YjH5RJatWjB5EuWiLIMOr3oCd0MF"><rect width="121.009" height="131.815"/></clipPath></defs><g clip-path="url(#_clipPath_aWq0YjH5RJatWjB5EuWiLIMOr3oCd0MF)"><path d=" M 60.323 13.825 C 60.226 13.843 60.128 13.87 60.04 13.895 C 58.988 14.133 58.248 15.08 58.273 16.158 L 58.273 32 C 58.264 32.815 58.689 33.573 59.395 33.99 C 60.103 34.397 60.968 34.397 61.676 33.99 C 62.382 33.573 62.808 32.813 62.799 32 L 62.799 16.158 C 62.822 15.507 62.563 14.878 62.089 14.431 C 61.615 13.984 60.972 13.764 60.323 13.825 Z  M 44.271 13.895 C 43.404 14.046 42.705 14.689 42.483 15.541 C 42.253 16.388 42.535 17.291 43.207 17.856 C 50.99 24.408 51.483 34.334 51.483 34.334 C 51.519 35.581 52.569 36.563 53.816 36.527 C 55.063 36.491 56.046 35.44 56.009 34.193 C 56.009 34.193 55.602 22.4 46.178 14.461 C 45.665 13.987 44.96 13.778 44.271 13.895 Z  M 76.095 13.895 C 75.647 13.959 75.228 14.156 74.893 14.461 C 65.469 22.4 65.062 34.193 65.062 34.193 C 65.026 35.438 66.008 36.491 67.255 36.527 C 68.504 36.564 69.548 35.583 69.588 34.334 C 69.588 34.334 70.084 24.408 77.862 17.856 C 78.621 17.206 78.862 16.134 78.455 15.222 C 78.051 14.304 77.089 13.764 76.095 13.895 Z  M 30.689 21.816 C 29.445 21.929 28.524 23.045 28.639 24.292 C 28.754 25.537 29.868 26.458 31.115 26.343 C 38.78 26.343 42.014 28.174 43.422 29.597 C 44.128 30.312 44.411 30.993 44.553 31.435 C 44.694 31.876 44.694 31.93 44.694 31.93 C 44.658 33.175 45.64 34.227 46.887 34.264 C 48.136 34.3 49.179 33.32 49.22 32.071 C 49.22 32.071 49.256 31.134 48.937 30.09 C 48.62 29.049 47.919 27.748 46.674 26.483 C 44.18 23.948 39.522 21.816 31.115 21.816 L 30.689 21.816 Z  M 87.693 21.816 C 80.356 21.816 76.14 23.989 73.972 26.555 C 71.806 29.12 71.851 32.068 71.851 32.068 C 71.888 33.315 72.938 34.298 74.185 34.261 C 75.432 34.225 76.414 33.175 76.378 31.928 C 76.378 31.928 76.265 30.919 77.439 29.522 C 78.616 28.131 81.221 26.343 87.693 26.343 C 88.508 26.352 89.266 25.926 89.683 25.22 C 90.089 24.514 90.089 23.645 89.683 22.939 C 89.266 22.233 88.506 21.807 87.693 21.816 Z  M 74.468 37.871 C 73.633 37.972 72.821 38.211 72.064 38.577 C 70.745 39.184 69.546 40.022 68.525 41.053 C 68.345 40.686 68.107 40.351 67.819 40.062 C 66.925 39.231 65.838 38.985 64.707 38.862 C 63.593 38.738 62.276 38.738 60.533 38.79 L 60.463 38.79 C 56.865 38.799 54.258 39.401 52.33 40.557 C 51.781 40.887 51.281 41.291 50.845 41.759 C 49.677 40.134 48.025 39.215 46.176 38.507 C 45.187 38.127 44.171 37.817 42.854 38.082 C 42.075 38.244 41.376 38.669 40.874 39.286 C 40.333 39.964 40.165 40.743 40.165 41.479 C 40.165 50.76 34.243 65.939 27.292 79.386 L 27.365 79.386 L 27.295 79.527 C 18.692 96.5 8.904 111.636 8.904 111.636 L 8.694 112.129 C 8.241 113.492 8.287 115.031 9.19 116.162 C 10.09 117.294 11.425 118 13.007 118 L 108.06 118 C 109.644 118 110.979 117.31 111.88 115.95 C 112.559 114.818 112.823 113.261 112.373 112.129 L 112.163 111.636 C 112.163 111.405 101.978 97.181 92.926 80.658 L 92.713 80.305 L 92.853 80.233 C 85.453 66.778 78.851 51.362 78.851 42.185 C 78.851 41.54 78.806 40.94 78.568 40.275 C 78.374 39.736 77.844 39.179 77.224 38.72 L 77.367 38.577 C 77.269 38.498 77.179 38.568 77.082 38.507 C 77.014 38.462 77.014 38.401 76.941 38.364 L 76.871 38.437 C 76.047 37.993 75.174 37.792 74.465 37.871 L 74.468 37.871 Z  M 74.398 42.538 C 74.531 53.199 80.834 67.496 87.906 80.588 C 84.421 81.063 82.063 77.979 78.854 73.16 C 76.36 69.537 73.646 65.737 69.801 65.737 C 66.176 65.737 64.806 69.537 63.222 73.16 C 61.64 77.008 60.518 79.95 58.485 79.95 C 56.673 79.95 56.664 79.721 56.433 77.687 C 56.204 76.105 55.772 72.737 51.696 72.737 C 47.398 72.737 44.243 77.008 41.299 81.084 C 38.805 84.478 36.331 87.916 34.297 87.235 C 32.751 86.793 32.07 82.948 31.821 80.445 C 38.443 67.487 44.146 53.446 44.553 42.75 C 44.596 42.769 44.578 42.732 44.621 42.75 C 45.753 43.183 47.355 44.581 47.31 44.518 C 48.627 46.568 48.867 48.637 48.797 50.318 C 47.796 56.542 45.189 60.007 45.189 60.007 C 44.684 60.638 44.554 61.491 44.848 62.245 C 45.142 62.998 45.816 63.537 46.616 63.659 C 47.415 63.781 48.219 63.467 48.724 62.836 C 48.724 62.836 50.653 60.272 52.119 55.834 L 52.192 55.834 C 52.192 55.834 53.029 53.844 53.251 51.024 C 53.534 49.345 53.746 47.551 53.746 45.579 C 53.746 45.199 53.71 44.907 54.595 44.378 C 55.478 43.846 57.388 43.316 60.536 43.316 L 60.606 43.316 C 62.321 43.264 63.525 43.246 64.213 43.316 C 64.444 43.343 64.53 43.361 64.639 43.386 C 64.646 43.441 64.682 43.45 64.707 43.599 C 64.797 44.086 64.876 44.986 65.062 46.145 C 65.673 50.282 66.945 53.138 68.104 54.985 C 69.26 56.834 70.507 57.814 70.507 57.814 C 71.523 58.556 72.948 58.335 73.69 57.319 C 74.433 56.304 74.211 54.879 73.196 54.136 C 73.196 54.136 72.743 53.899 71.922 52.582 C 71.188 51.405 70.349 49.479 69.801 46.568 C 70.215 46.138 70.702 45.573 71.356 44.731 C 72.08 43.876 72.971 43.179 73.974 42.68 C 74.167 42.59 74.239 42.59 74.398 42.538 Z " fill="rgb(255,255,255)"/></g></svg>