<?xml version="1.0" standalone="no"?><!-- Generator: Gravit.io --><svg xmlns="http://www.w3.org/2000/svg" xmlns:xlink="http://www.w3.org/1999/xlink" style="isolation:isolate" viewBox="0 0 113.449 69.815" width="113.449" height="69.815"><defs><clipPath id="_clipPath_yPyv453lLNwOcDkxl7xlyPjfXZpDjTcD"><rect width="113.449" height="69.815"/></clipPath></defs><g clip-path="url(#_clipPath_yPyv453lLNwOcDkxl7xlyPjfXZpDjTcD)"><path d=" M 0 0 L 0 8.727 C 1.723 8.727 2.609 9.255 3.818 10.363 C 5.026 11.471 6.218 13.226 7.636 15.407 C 9.05 17.589 10.62 20.198 12.955 22.363 C 15.587 24.805 19.042 26.168 22.633 26.181 C 26.262 26.152 29.755 24.793 32.451 22.363 C 34.837 20.216 36.443 17.742 37.905 15.543 C 39.371 13.348 40.654 11.354 41.863 10.228 C 43.071 9.102 43.892 8.727 45.406 8.727 C 47.129 8.727 47.88 9.255 49.088 10.363 C 50.297 11.471 51.628 13.226 53.042 15.407 C 54.456 17.589 56.026 20.198 58.361 22.363 C 60.994 24.806 64.451 26.169 68.043 26.181 C 71.997 26.181 75.387 24.527 77.721 22.363 C 80.06 20.198 81.627 17.589 83.045 15.407 C 84.454 13.226 85.785 11.471 86.994 10.363 C 88.207 9.255 89.092 8.727 90.812 8.727 C 92.535 8.727 93.286 9.255 94.494 10.363 C 95.707 11.471 97.034 13.226 98.452 15.407 C 99.866 17.589 101.432 20.198 103.767 22.363 C 106.4 24.806 109.857 26.169 113.449 26.181 L 113.449 17.454 C 111.726 17.454 110.84 16.926 109.631 15.817 C 108.423 14.709 107.231 12.955 105.813 10.773 C 104.399 8.592 102.829 5.982 100.494 3.818 C 97.862 1.375 94.407 0.012 90.816 0 C 86.858 0 83.333 1.654 80.998 3.818 C 78.66 5.982 77.228 8.592 75.815 10.773 C 74.401 12.955 73.07 14.709 71.861 15.817 C 70.648 16.926 69.767 17.454 68.043 17.454 C 66.32 17.454 65.569 16.926 64.361 15.817 C 63.152 14.709 61.821 12.955 60.407 10.773 C 58.993 8.592 57.423 5.982 55.088 3.818 C 52.455 1.374 48.998 0.011 45.406 0 C 41.54 0 38.145 1.806 35.863 3.953 C 33.576 6.1 32.128 8.469 30.679 10.634 C 29.23 12.802 27.852 14.692 26.591 15.817 C 25.325 16.943 24.357 17.454 22.637 17.454 C 20.914 17.454 20.163 16.926 18.955 15.817 C 17.742 14.709 16.415 12.955 14.997 10.773 C 13.583 8.592 12.017 5.982 9.682 3.818 C 7.049 1.374 3.592 0.011 0 0 Z  M 0 43.634 L 0 52.361 C 1.723 52.361 2.609 52.889 3.818 53.998 C 5.026 55.106 6.218 56.86 7.636 59.042 C 9.05 61.223 10.62 63.833 12.955 65.997 C 15.587 68.44 19.042 69.803 22.633 69.815 C 26.262 69.786 29.755 68.428 32.451 65.997 C 34.837 63.85 36.443 61.376 37.905 59.177 C 39.371 56.982 40.654 54.988 41.863 53.862 C 43.071 52.737 43.892 52.361 45.406 52.361 C 47.129 52.361 47.88 52.889 49.088 53.998 C 50.297 55.106 51.628 56.86 53.042 59.042 C 54.456 61.223 56.026 63.833 58.361 65.997 C 60.994 68.441 64.451 69.804 68.043 69.815 C 71.997 69.815 75.387 68.161 77.721 65.997 C 80.06 63.833 81.627 61.223 83.045 59.042 C 84.454 56.86 85.785 55.106 86.994 53.998 C 88.207 52.889 89.092 52.361 90.812 52.361 C 92.535 52.361 93.286 52.889 94.494 53.998 C 95.707 55.106 97.034 56.86 98.452 59.042 C 99.866 61.223 101.432 63.833 103.767 65.997 C 106.4 68.441 109.857 69.804 113.449 69.815 L 113.449 61.088 C 111.726 61.088 110.84 60.56 109.631 59.452 C 108.423 58.344 107.231 56.589 105.813 54.408 C 104.399 52.226 102.829 49.617 100.494 47.452 C 97.862 45.01 94.407 43.647 90.816 43.634 C 86.858 43.634 83.333 45.288 80.998 47.452 C 78.66 49.617 77.228 52.226 75.815 54.408 C 74.401 56.589 73.07 58.344 71.861 59.452 C 70.648 60.56 69.767 61.088 68.043 61.088 C 66.32 61.088 65.569 60.56 64.361 59.452 C 63.152 58.344 61.821 56.589 60.407 54.408 C 58.993 52.226 57.423 49.617 55.088 47.452 C 52.455 45.009 48.998 43.646 45.406 43.634 C 41.54 43.634 38.145 45.441 35.863 47.588 C 33.576 49.734 32.128 52.104 30.679 54.272 C 29.23 56.437 27.852 58.33 26.591 59.452 C 25.325 60.578 24.357 61.088 22.637 61.088 C 20.914 61.088 20.163 60.56 18.955 59.452 C 17.742 58.344 16.415 56.589 14.997 54.408 C 13.583 52.226 12.017 49.617 9.682 47.452 C 7.049 45.009 3.592 43.646 0 43.634 Z " fill="rgb(255,255,255)"/></g></svg>