<?xml version="1.0" standalone="no"?><!-- Generator: Gravit.io --><svg xmlns="http://www.w3.org/2000/svg" xmlns:xlink="http://www.w3.org/1999/xlink" style="isolation:isolate" viewBox="222.566 411.571 104.434 103.974" width="104.434" height="103.974"><path d=" M 274.682 411.589 C 274.51 411.621 274.339 411.669 274.183 411.713 C 272.327 412.132 271.023 413.802 271.066 415.704 L 271.066 427.678 C 271.05 429.115 271.8 430.452 273.045 431.187 C 274.295 431.905 275.819 431.905 277.069 431.187 C 278.314 430.452 279.064 429.111 279.049 427.678 L 279.049 415.704 C 279.089 414.556 278.633 413.446 277.797 412.658 C 276.961 411.87 275.826 411.48 274.682 411.589 Z  M 250.486 418.075 C 249.167 418.265 248.029 419.101 247.453 420.303 C 246.877 421.505 246.938 422.915 247.616 424.062 L 253.603 434.54 C 254.709 436.471 257.156 437.142 259.092 436.036 C 261.023 434.927 261.694 432.484 260.588 430.548 L 254.601 420.071 C 253.786 418.606 252.141 417.808 250.486 418.075 Z  M 298.255 418.075 C 297.088 418.296 296.082 419.028 295.513 420.071 L 289.526 430.548 C 288.995 431.474 288.854 432.573 289.135 433.603 C 289.416 434.633 290.095 435.508 291.023 436.036 C 292.955 437.142 295.405 436.475 296.511 434.54 L 302.498 424.062 C 303.253 422.761 303.215 421.147 302.399 419.883 C 301.583 418.62 300.127 417.921 298.63 418.075 L 298.259 418.075 L 298.255 418.075 Z  M 316.344 435.537 C 316.217 435.572 316.091 435.613 315.969 435.661 C 315.484 435.74 315.018 435.909 314.596 436.16 L 304.118 442.147 C 302.187 443.253 301.516 445.7 302.622 447.635 C 303.731 449.567 306.174 450.238 308.11 449.132 L 318.587 443.145 C 320.459 442.355 321.438 440.285 320.863 438.337 C 320.287 436.389 318.34 435.184 316.34 435.537 L 316.344 435.537 Z  M 232.896 435.661 C 231.169 435.882 229.783 437.194 229.468 438.906 C 229.158 440.617 229.991 442.331 231.527 443.145 L 242.004 449.132 C 243.936 450.238 246.383 449.571 247.493 447.635 C 248.024 446.71 248.165 445.61 247.884 444.581 C 247.603 443.551 246.924 442.675 245.996 442.147 L 235.518 436.16 C 234.73 435.696 233.804 435.519 232.9 435.661 L 232.896 435.661 Z  M 275.057 435.661 C 259.622 435.661 247.117 448.166 247.117 463.601 C 247.117 479.036 259.622 491.541 275.057 491.541 C 290.492 491.541 302.997 479.036 302.997 463.601 C 302.997 448.166 290.492 435.661 275.057 435.661 Z  M 275.057 443.644 C 286.065 443.644 295.014 452.593 295.014 463.601 C 295.014 474.609 286.065 483.558 275.057 483.558 C 264.049 483.558 255.1 474.609 255.1 463.601 C 255.1 452.593 264.049 443.644 275.057 443.644 Z  M 226.039 459.61 C 223.84 459.921 222.295 461.964 222.606 464.16 C 222.918 466.359 224.961 467.904 227.16 467.592 L 239.135 467.592 C 240.572 467.608 241.909 466.858 242.643 465.613 C 243.36 464.367 243.36 462.834 242.643 461.589 C 241.909 460.344 240.568 459.594 239.135 459.61 L 226.039 459.61 Z  M 309.858 459.61 C 307.659 459.921 306.114 461.964 306.425 464.16 C 306.737 466.359 308.78 467.904 310.98 467.592 L 322.954 467.592 C 324.391 467.608 325.728 466.858 326.462 465.613 C 327.179 464.367 327.179 462.834 326.462 461.589 C 325.728 460.344 324.387 459.594 322.954 459.61 L 309.858 459.61 Z  M 243.749 477.447 C 243.623 477.481 243.499 477.523 243.377 477.571 C 242.893 477.65 242.427 477.819 242.004 478.07 L 231.527 484.057 C 229.591 485.162 228.921 487.609 230.03 489.545 C 231.136 491.477 233.583 492.147 235.518 491.042 L 245.996 485.055 C 247.867 484.265 248.847 482.195 248.271 480.247 C 247.696 478.299 245.749 477.093 243.749 477.447 Z  M 305.491 477.571 C 303.763 477.79 302.375 479.102 302.059 480.816 C 301.749 482.526 302.582 484.241 304.118 485.055 L 314.596 491.042 C 316.532 492.147 318.978 491.481 320.084 489.545 C 320.615 488.619 320.756 487.52 320.475 486.49 C 320.194 485.46 319.515 484.585 318.587 484.057 L 308.11 478.07 C 307.321 477.605 306.396 477.429 305.491 477.571 Z  M 256.346 490.666 C 255.179 490.887 254.172 491.62 253.603 492.662 L 247.616 503.14 C 247.085 504.065 246.944 505.165 247.225 506.194 C 247.506 507.224 248.185 508.1 249.113 508.628 C 251.045 509.737 253.496 509.067 254.601 507.131 L 260.588 496.654 C 261.344 495.353 261.306 493.738 260.489 492.475 C 259.673 491.211 258.217 490.513 256.721 490.666 L 256.346 490.666 Z  M 292.396 490.666 C 291.076 490.857 289.939 491.692 289.363 492.894 C 288.787 494.096 288.848 495.506 289.526 496.654 L 295.513 507.131 C 296.619 509.067 299.065 509.737 301.001 508.628 C 302.933 507.522 303.604 505.075 302.498 503.14 L 296.511 492.662 C 295.696 491.197 294.051 490.4 292.396 490.666 Z  M 274.682 495.408 C 274.51 495.44 274.339 495.488 274.183 495.532 C 272.327 495.951 271.023 497.621 271.066 499.523 L 271.066 511.498 C 271.05 512.934 271.8 514.272 273.045 515.006 C 274.295 515.724 275.819 515.724 277.069 515.006 C 278.314 514.272 279.064 512.93 279.049 511.498 L 279.049 499.523 C 279.089 498.375 278.633 497.265 277.797 496.477 C 276.961 495.689 275.826 495.3 274.682 495.408 Z " fill="rgb(255,255,255)"/></svg>