<?xml version="1.0" standalone="no"?><!-- Generator: Gravit.io --><svg xmlns="http://www.w3.org/2000/svg" xmlns:xlink="http://www.w3.org/1999/xlink" style="isolation:isolate" viewBox="7.117 11 111.575 96.968" width="111.575" height="96.968"><g id="Group"><path d=" M 25.124 45 C 19.477 45 14.919 49.257 14.164 54.674 C 10.152 55.744 7.117 59.253 7.117 63.566 C 7.117 68.347 10.844 72.191 15.506 72.737 C 16.807 76.371 20.148 79 24.23 79 C 27.026 79 29.319 77.581 31.053 75.645 C 32.477 76.749 34.149 77.547 36.085 77.547 C 39.769 77.547 42.795 75.092 43.914 71.785 L 44.082 71.785 C 48.96 71.785 52.972 67.816 52.972 62.95 C 52.972 58.806 49.989 55.443 46.095 54.506 C 44.842 51.061 41.641 48.523 37.762 48.523 C 36.308 48.523 35.015 48.971 33.792 49.585 C 31.736 46.931 28.739 45 25.124 45 Z  M 25.124 48.579 C 28.073 48.579 30.611 50.222 31.89 52.605 L 32.84 54.45 L 34.519 53.164 C 35.457 52.466 36.595 52.093 37.763 52.102 C 40.39 52.102 42.55 53.906 43.074 56.295 L 43.355 57.584 L 44.64 57.695 C 47.341 57.965 49.397 60.237 49.395 62.95 C 49.395 65.858 47.045 68.208 44.08 68.208 C 43.719 68.208 43.361 68.165 43.019 68.095 L 41.061 67.703 L 40.895 69.661 C 40.671 72.066 38.622 73.968 36.085 73.968 C 34.546 73.968 33.218 73.268 32.338 72.179 L 30.661 70.108 L 29.374 72.458 C 28.381 74.24 26.459 75.421 24.23 75.421 C 21.459 75.444 19.065 73.496 18.525 70.779 L 18.245 69.326 L 16.737 69.326 C 16.639 69.326 16.603 69.374 16.569 69.382 C 13.305 69.382 10.696 66.769 10.696 63.566 C 10.696 60.588 12.968 58.183 15.898 57.861 L 17.464 57.695 L 17.464 56.073 C 17.49 51.911 20.889 48.579 25.124 48.579 Z " fill="rgb(255,255,255)"/><path d=" M 90.844 11 C 85.197 11 80.639 15.257 79.884 20.674 C 75.872 21.744 72.837 25.253 72.837 29.566 C 72.837 34.347 76.564 38.191 81.226 38.737 C 82.527 42.371 85.868 45 89.95 45 C 92.747 45 95.039 43.581 96.773 41.645 C 98.197 42.749 99.869 43.547 101.805 43.547 C 105.49 43.547 108.515 41.092 109.634 37.785 L 109.802 37.785 C 114.68 37.785 118.692 33.816 118.692 28.95 C 118.692 24.806 115.709 21.443 111.815 20.506 C 110.563 17.061 107.361 14.523 103.482 14.523 C 102.029 14.523 100.735 14.971 99.513 15.585 C 97.457 12.931 94.459 11 90.844 11 Z  M 90.844 14.579 C 93.794 14.579 96.331 16.222 97.61 18.605 L 98.561 20.45 L 100.239 19.164 C 101.175 18.466 102.315 18.093 103.483 18.102 C 106.11 18.102 108.27 19.906 108.795 22.295 L 109.076 23.584 L 110.36 23.695 C 113.061 23.965 115.115 26.237 115.115 28.95 C 115.115 31.858 112.765 34.208 109.8 34.208 C 109.439 34.208 109.081 34.165 108.739 34.095 L 106.782 33.703 L 106.615 35.661 C 106.391 38.066 104.342 39.968 101.805 39.968 C 100.266 39.968 98.938 39.268 98.058 38.179 L 96.381 36.108 L 95.094 38.458 C 94.101 40.24 92.179 41.421 89.95 41.421 C 87.18 41.444 84.784 39.496 84.245 36.779 L 83.966 35.326 L 82.457 35.326 C 82.359 35.326 82.323 35.374 82.289 35.382 C 79.025 35.382 76.416 32.769 76.416 29.566 C 76.416 26.588 78.689 24.183 81.618 23.861 L 83.184 23.695 L 83.184 22.073 C 83.211 17.911 86.609 14.579 90.844 14.579 Z " fill="rgb(255,255,255)"/><path d=" M 82.513 73.968 C 76.865 73.968 72.307 78.225 71.552 83.642 C 67.54 84.712 64.505 88.221 64.505 92.534 C 64.505 97.315 68.233 101.159 72.894 101.705 C 74.195 105.339 77.536 107.968 81.618 107.968 C 84.415 107.968 86.707 106.549 88.441 104.613 C 89.866 105.717 91.537 106.515 93.473 106.515 C 97.158 106.515 100.184 104.06 101.302 100.753 L 101.47 100.753 C 106.348 100.753 110.36 96.784 110.36 91.918 C 110.36 87.774 107.377 84.411 103.483 83.474 C 102.231 80.029 99.029 77.491 95.15 77.491 C 93.697 77.491 92.403 77.939 91.181 78.553 C 89.125 75.899 86.127 73.968 82.513 73.968 Z  M 82.513 77.547 C 85.462 77.547 87.999 79.19 89.279 81.573 L 90.229 83.418 L 91.907 82.132 C 92.843 81.434 93.983 81.061 95.152 81.07 C 97.779 81.07 99.939 82.874 100.463 85.263 L 100.744 86.552 L 102.029 86.663 C 104.729 86.933 106.783 89.205 106.783 91.918 C 106.783 94.826 104.434 97.176 101.469 97.176 C 101.107 97.176 100.749 97.133 100.407 97.063 L 98.45 96.671 L 98.283 98.629 C 98.06 101.034 96.011 102.936 93.473 102.936 C 91.934 102.936 90.606 102.236 89.726 101.147 L 88.049 99.076 L 86.763 101.426 C 85.77 103.208 83.848 104.389 81.618 104.389 C 78.848 104.412 76.452 102.464 75.913 99.747 L 75.634 98.294 L 74.125 98.294 C 74.027 98.294 73.991 98.342 73.957 98.35 C 70.693 98.35 68.084 95.737 68.084 92.534 C 68.084 89.556 70.357 87.151 73.286 86.829 L 74.852 86.663 L 74.852 85.041 C 74.879 80.879 78.277 77.547 82.513 77.547 Z " fill="rgb(255,255,255)"/></g></svg>