<?xml version="1.0" standalone="no"?><!-- Generator: Gravit.io --><svg xmlns="http://www.w3.org/2000/svg" xmlns:xlink="http://www.w3.org/1999/xlink" style="isolation:isolate" viewBox="0 0 121.009 131.815" width="121.009" height="131.815"><defs><clipPath id="_clipPath_iDZOuBFMI0sfr2TTE8sZvZX0kPRtwFa3"><rect width="121.009" height="131.815"/></clipPath></defs><g clip-path="url(#_clipPath_iDZOuBFMI0sfr2TTE8sZvZX0kPRtwFa3)"><path d=" M 60.492 15.001 C 56.237 15.001 51.982 17.023 49.56 21.059 L 3.496 98.046 C -1.402 106.196 4.868 116.815 14.389 116.815 L 106.572 116.815 C 116.125 116.815 122.402 106.196 117.527 98.046 L 71.424 21.059 C 69.11 17.246 64.952 14.942 60.492 15.001 Z  M 60.492 22.712 C 62.114 22.712 63.737 23.512 64.724 25.103 L 110.788 102.059 C 112.716 105.272 110.576 108.978 106.556 108.978 L 14.405 108.978 C 10.416 108.978 8.277 105.272 10.204 102.059 L 56.276 25.103 C 57.167 23.62 58.77 22.713 60.5 22.712 L 60.492 22.712 Z  M 56.511 46.285 L 56.511 85.468 L 64.348 85.468 L 64.348 46.285 L 56.511 46.285 Z  M 56.511 93.305 L 56.511 101.142 L 64.348 101.142 L 64.348 93.305 L 56.511 93.305 Z " fill="rgb(255,255,255)"/></g></svg>