<?xml version="1.0" standalone="no"?><!-- Generator: Gravit.io --><svg xmlns="http://www.w3.org/2000/svg" xmlns:xlink="http://www.w3.org/1999/xlink" style="isolation:isolate" viewBox="0 0 121.009 131.815" width="121.009" height="131.815"><defs><clipPath id="_clipPath_fea4xyxnqMFE8IJttN8sAqKT3ueJ7mdj"><rect width="121.009" height="131.815"/></clipPath></defs><g clip-path="url(#_clipPath_fea4xyxnqMFE8IJttN8sAqKT3ueJ7mdj)"><path d=" M 19.935 11.815 C 12.454 11.815 6.412 19.085 6.412 28.043 C 6.412 37 12.454 44.271 19.935 44.271 C 25.81 44.271 30.754 39.748 32.614 33.452 L 39.711 33.452 C 39.268 31.721 38.868 29.925 38.868 28.043 C 38.868 26.16 39.268 24.364 39.711 22.634 L 32.614 22.634 C 30.754 16.337 25.81 11.815 19.935 11.815 Z  M 60.504 11.815 C 54.705 11.817 49.347 14.913 46.449 19.936 C 43.551 24.96 43.553 31.148 46.454 36.169 C 49.356 41.191 54.716 44.283 60.515 44.281 C 69.481 44.278 76.746 37.008 76.743 28.043 C 76.74 19.077 69.47 11.812 60.504 11.815 L 60.504 11.815 Z  M 101.074 11.815 C 95.199 11.815 90.255 16.337 88.395 22.634 L 81.298 22.634 C 81.741 24.364 82.141 26.16 82.141 28.043 C 82.141 29.925 81.741 31.721 81.298 33.452 L 88.395 33.452 C 90.255 39.748 95.199 44.271 101.074 44.271 C 108.555 44.271 114.597 37 114.597 28.043 C 114.597 19.085 108.555 11.815 101.074 11.815 Z  M 55.095 48.836 L 55.095 60.498 L 33.458 60.498 C 24.522 60.498 17.231 67.79 17.231 76.726 L 17.231 109.182 C 17.231 115.156 22.074 120 28.049 120 L 92.96 120 C 98.935 120 103.778 115.156 103.778 109.182 L 103.778 76.726 C 103.778 67.79 96.487 60.498 87.551 60.498 L 65.914 60.498 L 65.914 48.836 C 64.183 49.279 62.387 49.68 60.504 49.68 C 58.622 49.68 56.826 49.279 55.095 48.836 Z  M 33.458 71.317 L 87.551 71.317 C 90.526 71.317 92.96 73.751 92.96 76.726 L 92.96 87.545 C 92.96 90.52 90.526 92.954 87.551 92.954 L 33.458 92.954 C 30.483 92.954 28.049 90.52 28.049 87.545 L 28.049 76.726 C 28.049 73.751 30.483 71.317 33.458 71.317 Z " fill="rgb(255,255,255)"/></g></svg>